<svg width="91" height="99" viewBox="0 0 91 99" fill="none" xmlns="http://www.w3.org/2000/svg">
<path d="M45.9306 8.79935C46.5738 6.39875 49.0413 4.97413 51.4419 5.61736L75.5296 12.0716C83.2515 14.1407 87.834 22.0779 85.7649 29.7997L71.5655 82.7925C69.4964 90.5145 61.5593 95.097 53.8374 93.0279L15.2972 82.7011C7.57527 80.632 2.99278 72.6949 5.06186 64.9729L15.7114 25.2283C16.3546 22.8277 18.8221 21.4031 21.2227 22.0464L35.6753 25.9189C38.596 26.7015 41.5981 24.9683 42.3807 22.0475L45.9306 8.79935ZM51.7061 48.8845C51.7061 48.8845 51.7061 48.8845 51.7061 48.8845L51.7061 48.8845ZM47.0941 66.0966L47.0941 66.0966L47.0962 66.0954L47.0941 66.0966Z" fill="white" stroke="#5A5A5A" stroke-width="9" stroke-linejoin="round"/>
<path d="M42.9706 6.07045C44.5521 5.22415 46.4851 5.39789 47.8904 6.51263C49.2956 7.62736 49.9047 9.47019 49.4404 11.2028L46.2564 23.0858C44.9002 28.147 39.6978 31.1506 34.6366 29.7944L21.6403 26.3121C19.8567 25.8341 18.546 24.3151 18.3346 22.4808C18.1231 20.6464 19.0537 18.869 20.6818 17.9978L42.9706 6.07045Z" fill="white" stroke="#5A5A5A" stroke-width="9" stroke-linejoin="round"/>
<path opacity="0.4" d="M42.9706 6.07045C44.5521 5.22415 46.4852 5.39789 47.8904 6.51263C49.2957 7.62736 49.9047 9.47019 49.4405 11.2028L46.2564 23.0858C44.9003 28.147 39.6979 31.1506 34.6367 29.7944L21.6403 26.3121C19.8567 25.8341 18.5461 24.3151 18.3346 22.4808C18.1232 20.6464 19.0538 18.869 20.6818 17.9978L42.9706 6.07045Z" fill="white" stroke="#5A5A5A" stroke-width="9" stroke-linejoin="round"/>
</svg>
