<svg width="91" height="99" viewBox="0 0 91 99" fill="none" xmlns="http://www.w3.org/2000/svg">
<path d="M45.9306 8.79935C46.5739 6.39875 49.0414 4.97413 51.442 5.61736L75.5296 12.0716C83.2516 14.1407 87.834 22.0779 85.765 29.7997L71.5656 82.7925C69.4965 90.5145 61.5594 95.097 53.8375 93.0279L15.2972 82.7011C7.57533 80.632 2.99284 72.6949 5.06192 64.9729L15.7115 25.2283C16.3547 22.8277 18.8222 21.4031 21.2228 22.0464L35.6754 25.9189C38.5961 26.7015 41.5982 24.9683 42.3808 22.0475L45.9306 8.79935ZM51.7062 48.8845C51.7061 48.8845 51.7061 48.8845 51.7061 48.8845L51.7062 48.8845ZM47.0942 66.0966L47.0941 66.0966L47.0962 66.0954L47.0942 66.0966Z" fill="#191919" stroke="#5A5A5A" stroke-width="9" stroke-linejoin="round"/>
<path d="M42.9707 6.07045C44.5522 5.22415 46.4853 5.39789 47.8905 6.51263C49.2958 7.62736 49.9048 9.47019 49.4405 11.2028L46.2565 23.0858C44.9004 28.147 39.698 31.1506 34.6368 29.7944L21.6404 26.3121C19.8568 25.8341 18.5462 24.3151 18.3347 22.4808C18.1232 20.6464 19.0538 18.869 20.6819 17.9978L42.9707 6.07045Z" fill="white" stroke="#5A5A5A" stroke-width="9" stroke-linejoin="round"/>
<path opacity="0.4" d="M42.9707 6.07045C44.5522 5.22415 46.4853 5.39789 47.8905 6.51263C49.2958 7.62736 49.9048 9.47019 49.4405 11.2028L46.2565 23.0858C44.9004 28.147 39.698 31.1506 34.6368 29.7944L21.6404 26.3121C19.8568 25.8341 18.5462 24.3151 18.3347 22.4808C18.1232 20.6464 19.0538 18.869 20.6819 17.9978L42.9707 6.07045Z" fill="#151515" stroke="#5A5A5A" stroke-width="9" stroke-linejoin="round"/>
</svg>
