<svg width="186" height="34" viewBox="0 0 186 34" fill="none" xmlns="http://www.w3.org/2000/svg">
<path d="M185.067 17.7083C185.067 18.5071 184.925 19.2676 184.641 19.9899C184.356 20.7011 183.957 21.3304 183.442 21.8775C182.928 22.4246 182.31 22.8624 181.588 23.1906C180.865 23.508 180.067 23.6667 179.191 23.6667C178.316 23.6667 177.517 23.508 176.795 23.1906C176.083 22.8733 175.471 22.4465 174.956 21.9103C174.442 21.3632 174.042 20.734 173.758 20.0227C173.484 19.3005 173.348 18.5399 173.348 17.7411C173.348 16.9423 173.49 16.1872 173.774 15.4759C174.059 14.7537 174.458 14.119 174.973 13.5719C175.487 13.0247 176.105 12.5925 176.827 12.2751C177.55 11.9469 178.348 11.7827 179.224 11.7827C180.099 11.7827 180.893 11.9414 181.604 12.2587C182.326 12.5761 182.944 13.0083 183.459 13.5555C183.973 14.0917 184.367 14.7209 184.641 15.4431C184.925 16.1544 185.067 16.9094 185.067 17.7083ZM183.721 17.7411C183.721 17.0845 183.607 16.4663 183.377 15.8863C183.158 15.3063 182.846 14.8029 182.441 14.3762C182.036 13.9494 181.555 13.6102 180.997 13.3585C180.45 13.1068 179.848 12.981 179.191 12.981C178.535 12.981 177.927 13.1068 177.369 13.3585C176.822 13.5992 176.351 13.933 175.957 14.3598C175.564 14.7865 175.252 15.2899 175.022 15.8699C174.803 16.4389 174.694 17.0517 174.694 17.7083C174.694 18.3648 174.803 18.9831 175.022 19.5631C175.252 20.1431 175.569 20.6464 175.974 21.0732C176.379 21.5 176.855 21.8392 177.402 22.0909C177.96 22.3426 178.567 22.4684 179.224 22.4684C179.88 22.4684 180.482 22.348 181.029 22.1073C181.588 21.8556 182.064 21.5164 182.458 21.0896C182.851 20.6628 183.158 20.1649 183.377 19.5959C183.607 19.0159 183.721 18.3977 183.721 17.7411Z" fill="white"/>
<path d="M170.932 21.9103C170.396 22.3918 169.733 22.8076 168.946 23.1578C168.169 23.497 167.293 23.6667 166.319 23.6667C165.411 23.6667 164.596 23.5135 163.874 23.2071C163.162 22.9007 162.549 22.4794 162.035 21.9432C161.532 21.407 161.143 20.7777 160.87 20.0555C160.607 19.3333 160.476 18.5618 160.476 17.7411C160.476 16.9532 160.613 16.1982 160.886 15.4759C161.171 14.7537 161.565 14.119 162.068 13.5719C162.571 13.0247 163.173 12.5925 163.874 12.2751C164.585 11.9469 165.373 11.7827 166.237 11.7827C166.719 11.7827 167.156 11.8155 167.55 11.8812C167.955 11.9469 168.327 12.0453 168.667 12.1767C169.017 12.308 169.34 12.4721 169.635 12.6691C169.941 12.8551 170.237 13.0685 170.521 13.3092L169.684 14.2941C169.465 14.0971 169.236 13.922 168.995 13.7688C168.754 13.6047 168.491 13.4679 168.207 13.3585C167.933 13.2381 167.627 13.1451 167.288 13.0794C166.959 13.0138 166.593 12.981 166.188 12.981C165.553 12.981 164.968 13.1068 164.432 13.3585C163.895 13.6102 163.436 13.9494 163.053 14.3762C162.67 14.8029 162.369 15.3063 162.15 15.8863C161.931 16.4553 161.822 17.0626 161.822 17.7083C161.822 18.3977 161.926 19.0378 162.134 19.6287C162.353 20.2087 162.659 20.7121 163.053 21.1389C163.447 21.5656 163.923 21.8994 164.481 22.1401C165.039 22.3809 165.668 22.5012 166.369 22.5012C167.025 22.5012 167.643 22.3918 168.223 22.173C168.803 21.9432 169.29 21.6696 169.684 21.3522V18.4962H166.188V17.3307H170.932V21.9103Z" fill="white"/>
<path d="M158.25 17.7083C158.25 18.5071 158.108 19.2676 157.823 19.9899C157.539 20.7011 157.139 21.3304 156.625 21.8775C156.111 22.4246 155.492 22.8624 154.77 23.1906C154.048 23.508 153.249 23.6667 152.374 23.6667C151.498 23.6667 150.699 23.508 149.977 23.1906C149.266 22.8733 148.653 22.4465 148.139 21.9103C147.624 21.3632 147.225 20.734 146.94 20.0227C146.667 19.3005 146.53 18.5399 146.53 17.7411C146.53 16.9423 146.672 16.1872 146.957 15.4759C147.241 14.7537 147.641 14.119 148.155 13.5719C148.669 13.0247 149.288 12.5925 150.01 12.2751C150.732 11.9469 151.531 11.7827 152.406 11.7827C153.282 11.7827 154.075 11.9414 154.786 12.2587C155.509 12.5761 156.127 13.0083 156.641 13.5555C157.156 14.0917 157.55 14.7209 157.823 15.4431C158.108 16.1544 158.25 16.9094 158.25 17.7083ZM156.904 17.7411C156.904 17.0845 156.789 16.4663 156.559 15.8863C156.34 15.3063 156.028 14.8029 155.624 14.3762C155.219 13.9494 154.737 13.6102 154.179 13.3585C153.632 13.1068 153.03 12.981 152.374 12.981C151.717 12.981 151.11 13.1068 150.552 13.3585C150.004 13.5992 149.534 13.933 149.14 14.3598C148.746 14.7865 148.434 15.2899 148.204 15.8699C147.985 16.4389 147.876 17.0517 147.876 17.7083C147.876 18.3648 147.985 18.9831 148.204 19.5631C148.434 20.1431 148.751 20.6464 149.156 21.0732C149.561 21.5 150.037 21.8392 150.584 22.0909C151.143 22.3426 151.75 22.4684 152.406 22.4684C153.063 22.4684 153.665 22.348 154.212 22.1073C154.77 21.8556 155.246 21.5164 155.64 21.0896C156.034 20.6628 156.34 20.1649 156.559 19.5959C156.789 19.0159 156.904 18.3977 156.904 17.7411Z" fill="white"/>
<path d="M137.533 23.4696V11.9796H138.83V22.2714H145.297V23.4696H137.533Z" fill="white"/>
<path d="M130.793 11.9796L126.378 18.89V23.4696H123.85V18.9393L119.435 11.9796H122.389L125.13 16.592L127.921 11.9796H130.793Z" fill="white"/>
<path d="M117.858 23.4696H115.708L110.143 16.1653V23.4696H107.648V11.9796H109.979L115.363 19.0542V11.9796H117.858V23.4696Z" fill="white"/>
<path d="M105.875 23.4696H103.232L102.182 20.8926H97.3233L96.2728 23.4696H93.6957L98.62 11.8976H100.951L105.875 23.4696ZM101.279 18.6603L99.7526 14.9342L98.2261 18.6603H101.279Z" fill="white"/>
<path d="M93.964 15.9847C93.964 18.6438 91.8958 20.0226 89.3188 20.0226H87.3983V23.4696H84.8705V11.9796H89.565C92.3062 11.9796 93.964 13.6046 93.964 15.9519V15.9847ZM91.4034 16.0339V16.0011C91.4034 14.8685 90.6155 14.2612 89.3516 14.2612H87.3983V17.7739H89.4008C90.6647 17.7739 91.4034 17.0188 91.4034 16.0339Z" fill="white"/>
<path d="M82.1102 23.4696H79.5988V15.9683L76.3652 20.8762H76.2995L73.0987 16.0175V23.4696H70.6202V11.9796H73.3449L76.3652 16.8382L79.3854 11.9796H82.1102V23.4696Z" fill="white"/>
<path d="M68.3779 17.7247C68.3779 20.9911 65.8008 23.6667 62.2553 23.6667C58.7099 23.6667 56.1656 21.024 56.1656 17.7575V17.7247C56.1656 14.4582 58.7427 11.7827 62.2882 11.7827C65.8337 11.7827 68.3779 14.4254 68.3779 17.6919V17.7247ZM65.7352 17.7575V17.7247C65.7352 15.755 64.2907 14.1135 62.2553 14.1135C60.22 14.1135 58.8083 15.7221 58.8083 17.6919V17.7247C58.8083 19.6944 60.2528 21.3358 62.2882 21.3358C64.3235 21.3358 65.7352 19.7272 65.7352 17.7575Z" fill="white"/>
<path d="M54.9715 21.6149C53.7897 22.8788 52.4765 23.6667 50.2606 23.6667C46.8792 23.6667 44.3679 21.0568 44.3679 17.7575V17.7247C44.3679 14.4582 46.83 11.7827 50.3591 11.7827C52.5258 11.7827 53.8225 12.5049 54.8894 13.5555L53.2808 15.4103C52.3944 14.606 51.4917 14.1135 50.3427 14.1135C48.4058 14.1135 47.0106 15.7221 47.0106 17.6919V17.7247C47.0106 19.6944 48.3729 21.3358 50.3427 21.3358C51.6558 21.3358 52.4601 20.8106 53.3629 19.9899L54.9715 21.6149Z" fill="white"/>
<path opacity="0.56" fill-rule="evenodd" clip-rule="evenodd" d="M13.7951 0.689697C5.97466 1.94378 0 8.72223 0 16.8961C0 20.6025 1.22842 24.0219 3.30032 26.7695C3.28873 26.626 3.28282 26.4809 3.28282 26.3343C3.28282 23.3881 5.67122 20.9997 8.61746 20.9997C11.5637 20.9997 13.9521 23.3881 13.9521 26.3343C13.9521 29.0875 11.8665 31.3536 9.18894 31.6387C11.3691 32.7093 13.8215 33.3104 16.4143 33.3104C25.4796 33.3104 32.8286 25.9615 32.8286 16.8961C32.8286 14.0566 32.1075 11.3854 30.8385 9.05574C29.2254 12.0022 26.096 14.0002 22.5 14.0002C17.2533 14.0002 13 9.74691 13 4.50021C13 3.14504 13.2838 1.85614 13.7951 0.689697Z" fill="white"/>
</svg>
